Genre:Comedy
Language:English
 
http://www.imdb.com/title/tt1499658/

Source:Horrible.Bosses.CAM.F.U.-ItsFree Thanks!

Format : MPEG-4
Format profile : Base Media
Codec ID : isom
File size : 1.14 GiB
Duration : 1h 33mn
Overall bit rate : 1 753 Kbps

Video
ID : 1
Format : AVC
Format/Info : Advanced Video Codec
Format profile : High@L4.1
Format settings, CABAC : Yes
Format settings, ReFrames : 3 frames
Codec ID : avc1
Codec ID/Info : Advanced Video Coding
Duration : 1h 33mn
Bit rate mode : Variable
Bit rate : 1 523 Kbps
Maximum bit rate : 6 080 Kbps
Width : 608 pixels
Height : 256 pixels
Display aspect ratio : 2.35:1
Frame rate mode : Constant
Frame rate : 23.976 fps
Color space : YUV
Chroma subsampling : 4:2:0
Bit depth : 8 bits
Scan type : Progressive
Bits/(Pixel*Frame) : 0.408
Stream size : 1 017 MiB (87%)
Writing library : x264

Audio
ID : 2
Format : AAC
Format/Info : Advanced Audio Codec
Format version : Version 4
Format profile : LC
Format settings, SBR : No
Codec ID : 40
Duration : 1h 33mn
Bit rate mode : Variable
Bit rate : 224 Kbps
Maximum bit rate : 263 Kbps
Channel(s) : 2 channels
Channel positions : Front: L R
Sampling rate : 44.1 KHz
Stream size : 149 MiB (13%)


Plot:
Three friends conspire to murder their awful bosses when they realize they are standing in the way of their happiness
 
http://leetleech.org/images/57967378062515666718.png
 
http://leetleech.org/images/90360710942366372023.png
 
http://leetleech.org/images/17599012704113177413.png
 
http://leetleech.org/images/29627705964733450339.png